
<svg width="1367.535px" height="264.348px" viewBox="0 0 1367.535 264.348" version="1.1" xmlns="http://www.w3.org/2000/svg" xmlns:xlink="http://www.w3.org/1999/xlink">
    <defs>
        <polygon id="path-awrv-ikxd6-1" points="0 0 74.7308 0 74.7308 264.348 0 264.348"></polygon>
        <polygon id="path-awrv-ikxd6-3" points="1.42108547e-14 0 74.732 0 74.732 74.7306 1.42108547e-14 74.7306"></polygon>
        <polygon id="path-awrv-ikxd6-5" points="0 0 89.9366029 0 89.9366029 143.948363 0 143.948363"></polygon>
    </defs>
    <g id="Page-1" stroke="none" stroke-width="1" fill="none" fill-rule="evenodd">
        <g id="Group-32">
            <g id="Group-3">
                <mask id="mask-awrv-ikxd6-2" fill="white">
                    <use xlink:href="#path-awrv-ikxd6-1"></use>
                </mask>
                <g id="Clip-2"></g>
                <path d="M61.5728,264.3484 L13.1588,264.3484 C5.8908,264.3484 -0.0002,258.4564 -0.0002,251.1894 L-0.0002,61.5734 C-0.0002,27.5674 27.5668,-0.0006 61.5728,-0.0006 L61.5728,-0.0006 C68.8398,-0.0006 74.7308,5.8914 74.7308,13.1594 L74.7308,251.1894 C74.7308,258.4564 68.8398,264.3484 61.5728,264.3484" id="Fill-1" fill="#FFFFFF" mask="url(#mask-awrv-ikxd6-2)"></path>
            </g>
            <path d="M148.8423,169.5398 L115.5053,169.5398 C104.0743,169.5398 94.8083,160.2728 94.8083,148.8428 L94.8083,115.5058 C94.8083,104.0748 104.0743,94.8088 115.5053,94.8088 L148.8423,94.8088 C160.2733,94.8088 169.5393,104.0748 169.5393,115.5058 L169.5393,148.8428 C169.5393,160.2728 160.2733,169.5398 148.8423,169.5398" id="Fill-4" fill="#FFFFFF"></path>
            <g id="Group-8" transform="translate(94.8078, 189.6174)">
                <mask id="mask-awrv-ikxd6-4" fill="white">
                    <use xlink:href="#path-awrv-ikxd6-3"></use>
                </mask>
                <g id="Clip-7"></g>
                <path d="M13.159,74.731 L13.159,74.731 C5.892,74.731 1.42108547e-14,68.839 1.42108547e-14,61.572 L1.42108547e-14,13.158 C1.42108547e-14,5.891 5.892,0 13.159,0 L61.573,0 C68.84,0 74.732,5.891 74.732,13.158 C74.732,47.164 47.165,74.731 13.159,74.731" id="Fill-6" fill="#FFFFFF" mask="url(#mask-awrv-ikxd6-4)"></path>
            </g>
            <path d="M148.8423,74.7312 L115.5053,74.7312 C104.0743,74.7312 94.8083,65.4642 94.8083,54.0342 L94.8083,20.6972 C94.8083,9.2662 104.0743,0.0002 115.5053,0.0002 L148.8423,0.0002 C160.2733,0.0002 169.5393,9.2662 169.5393,20.6972 L169.5393,54.0342 C169.5393,65.4642 160.2733,74.7312 148.8423,74.7312" id="Fill-9" fill="#FFFFFF"></path>
            <path d="M320.9283,216.2586 L320.9283,47.2756 C320.9283,43.2366 324.2023,39.9616 328.2413,39.9616 L411.0603,39.9616 C415.0993,39.9616 418.3733,43.2366 418.3733,47.2756 L418.3733,64.3876 C418.3733,68.4266 415.0993,71.6996 411.0603,71.6996 L355.8893,71.6996 L355.8893,112.8606 L411.0603,112.8606 C415.0993,112.8606 418.3733,116.1336 418.3733,120.1726 L418.3733,136.7886 C418.3733,140.8266 415.0993,144.1016 411.0603,144.1016 L355.8893,144.1016 L355.8893,216.2586 C355.8893,220.2976 352.6153,223.5706 348.5773,223.5706 L328.2413,223.5706 C324.2023,223.5706 320.9283,220.2976 320.9283,216.2586" id="Fill-11" fill="#FFFFFF"></path>
            <path d="M466.3526,151.1687 C466.3526,162.6577 470.1746,172.2667 477.8206,179.9937 C485.4636,187.7237 494.7846,191.5837 505.7776,191.5837 C515.7766,191.5837 524.5796,187.7017 532.1856,179.9327 C539.7876,172.1637 543.5896,163.0707 543.5896,152.6557 C543.5896,141.5807 539.7666,132.0577 532.1216,124.0787 C524.4776,116.1047 515.5296,112.1157 505.2816,112.1157 C494.5356,112.1157 485.3616,115.8977 477.7596,123.4587 C470.1536,131.0227 466.3526,140.2587 466.3526,151.1687 M547.1856,216.2587 L547.1856,203.7337 C543.3836,210.5137 538.0296,215.5117 531.1306,218.7347 C524.2276,221.9587 515.4056,223.5707 504.6616,223.5707 C484.4946,223.5707 467.6546,216.6897 454.1406,202.9297 C440.6266,189.1677 433.8706,172.0787 433.8706,151.6647 C433.8706,142.0767 435.5646,132.9857 438.9546,124.3897 C442.3416,115.7957 447.1766,108.2317 453.4586,101.7017 C460.2356,94.5117 467.7566,89.2017 476.0226,85.7707 C484.2876,82.3417 493.5846,80.6247 503.9176,80.6247 C513.8356,80.6247 522.3686,82.2797 529.5186,85.5847 C536.6656,88.8917 542.4316,93.8917 546.8136,100.5857 L546.8136,91.4107 C546.8136,87.3717 550.0876,84.0977 554.1266,84.0977 L570.4956,84.0977 C574.5336,84.0977 577.8086,87.3717 577.8086,91.4107 L577.8086,216.2587 C577.8086,220.2977 574.5336,223.5707 570.4956,223.5707 L554.4986,223.5707 C550.4606,223.5707 547.1856,220.2977 547.1856,216.2587" id="Fill-13" fill="#FFFFFF"></path>
            <path d="M615.4966,216.2586 L615.4966,112.3626 L601.9816,112.3626 C597.9426,112.3626 594.6686,109.0896 594.6686,105.0506 L594.6686,91.4106 C594.6686,87.3716 597.9426,84.0976 601.9816,84.0976 L615.4966,84.0976 L615.4966,47.2756 C615.4966,43.2366 618.7706,39.9616 622.8096,39.9616 L639.9216,39.9616 C643.9606,39.9616 647.2346,43.2366 647.2346,47.2756 L647.2346,84.0976 L660.8736,84.0976 C664.9126,84.0976 668.1866,87.3716 668.1866,91.4106 L668.1866,105.0506 C668.1866,109.0896 664.9126,112.3626 660.8736,112.3626 L647.2346,112.3626 L647.2346,216.2586 C647.2346,220.2976 643.9606,223.5706 639.9216,223.5706 L622.8096,223.5706 C618.7706,223.5706 615.4966,220.2976 615.4966,216.2586" id="Fill-15" fill="#FFFFFF"></path>
            <path d="M683.5601,216.2586 L683.5601,91.4106 C683.5601,87.3716 686.8341,84.0976 690.8731,84.0976 L707.2421,84.0976 C711.2801,84.0976 714.5551,87.3716 714.5551,91.4106 L714.5551,216.2586 C714.5551,220.2976 711.2801,223.5706 707.2421,223.5706 L690.8731,223.5706 C686.8341,223.5706 683.5601,220.2976 683.5601,216.2586 M707.2421,70.2116 L690.8731,70.2116 C686.8341,70.2116 683.5601,66.9376 683.5601,62.8986 L683.5601,47.2756 C683.5601,43.2366 686.8341,39.9616 690.8731,39.9616 L707.2421,39.9616 C711.2801,39.9616 714.5551,43.2366 714.5551,47.2756 L714.5551,62.8986 C714.5551,66.9376 711.2801,70.2116 707.2421,70.2116" id="Fill-17" fill="#FFFFFF"></path>
            <path d="M773.9405,47.2752 L773.9405,99.5942 C778.5685,93.3952 783.8775,88.8082 789.8705,85.8322 C795.8635,82.8582 802.7025,81.3712 810.3885,81.3712 C827.4145,81.3712 840.4725,86.5982 849.5655,97.0532 C858.6565,107.5092 863.2025,122.5722 863.2025,142.2422 L863.2025,216.2582 C863.2025,220.2972 859.9285,223.5712 855.8895,223.5712 L838.7775,223.5712 C834.7385,223.5712 831.4635,220.2972 831.4635,216.2582 L831.4635,160.3422 C831.4635,141.6662 829.3775,128.9982 825.2045,122.3442 C821.0295,115.6932 813.7365,112.3632 803.3225,112.3632 C792.7425,112.3632 785.1385,116.1042 780.5105,123.5852 C775.8815,131.0642 773.5675,143.8962 773.5675,162.0792 L773.5675,216.2582 C773.5675,220.2972 770.2935,223.5712 766.2545,223.5712 L750.2585,223.5712 C746.2195,223.5712 742.9455,220.2972 742.9455,216.2582 L742.9455,47.2752 C742.9455,43.2362 746.2195,39.9622 750.2585,39.9622 L766.6275,39.9622 C770.6665,39.9622 773.9405,43.2362 773.9405,47.2752" id="Fill-19" fill="#FFFFFF"></path>
            <path d="M921.5567,217.073 L921.5567,47.275 C921.5567,43.236 924.8307,39.962 928.8697,39.962 L949.5767,39.962 C953.6157,39.962 956.8897,43.236 956.8897,47.275 L956.8897,217.073 C956.8897,221.112 953.6157,224.386 949.5767,224.386 L928.8697,224.386 C924.8307,224.386 921.5567,221.112 921.5567,217.073" id="Fill-21" fill="#FFFFFF"></path>
            <path d="M1090.7832,152.905 C1090.7832,141.251 1087.0832,131.54 1079.6872,123.77 C1072.2902,116.002 1063.0532,112.116 1051.9782,112.116 C1041.0682,112.116 1031.7492,116.083 1024.0212,124.017 C1016.2932,131.953 1012.4302,141.417 1012.4302,152.408 C1012.4302,163.898 1016.3132,173.466 1024.0842,181.108 C1031.8512,188.755 1041.6452,192.577 1053.4682,192.577 C1063.8812,192.577 1072.7022,188.733 1079.9342,181.047 C1087.1662,173.36 1090.7832,163.981 1090.7832,152.905 M1092.1462,95.008 L1092.1462,47.275 C1092.1462,43.236 1095.4212,39.962 1099.4602,39.962 L1116.0762,39.962 C1120.1142,39.962 1123.3882,43.236 1123.3882,47.275 L1123.3882,217.073 C1123.3882,221.112 1120.1142,224.386 1116.0762,224.386 L1099.4602,224.386 C1095.4212,224.386 1092.1462,221.112 1092.1462,217.073 L1092.1462,209.314 C1085.8642,214.272 1079.2532,217.972 1072.3112,220.41 C1065.3682,222.847 1057.8462,224.068 1049.7472,224.068 C1041.1512,224.068 1033.0512,222.703 1025.4472,219.975 C1017.8442,217.248 1011.0232,213.281 1004.9922,208.074 C996.7252,200.967 990.3812,192.557 985.9602,182.844 C981.5392,173.134 979.3282,162.822 979.3282,151.912 C979.3282,141.83 981.3732,132.16 985.4662,122.903 C989.5562,113.645 995.3212,105.629 1002.7602,98.851 C1008.9592,92.984 1016.0662,88.52 1024.0842,85.462 C1032.1002,82.404 1040.6542,80.874 1049.7472,80.874 C1058.5072,80.874 1066.2762,82.011 1073.0562,84.283 C1079.8312,86.558 1086.1962,90.132 1092.1462,95.008" id="Fill-23" fill="#FFFFFF"></path>
            <path d="M1213.2725,105.2566 C1213.2725,108.8196 1210.7075,111.8996 1207.1895,112.4626 C1198.0825,113.9236 1191.5145,116.9066 1187.4855,121.4136 C1182.6065,126.8696 1180.1705,136.7056 1180.1705,150.9206 L1180.1705,217.0726 C1180.1705,221.1116 1176.8965,224.3866 1172.8585,224.3866 L1155.7465,224.3866 C1151.7075,224.3866 1148.4325,221.1116 1148.4325,217.0726 L1148.4325,91.4106 C1148.4325,87.3716 1151.7075,84.0976 1155.7465,84.0976 L1170.8745,84.0976 C1174.9135,84.0976 1178.1875,87.3716 1178.1875,91.4106 L1178.1875,99.8426 C1182.9795,93.7276 1188.2285,89.2426 1193.9315,86.3906 C1197.2945,84.7096 1200.9155,83.5246 1204.7945,82.8346 C1209.2285,82.0456 1213.2725,85.5536 1213.2725,90.0566 L1213.2725,105.2566 Z" id="Fill-25" fill="#FFFFFF"></path>
            <path d="M1226.166,217.073 L1226.166,91.411 C1226.166,87.372 1229.44,84.097 1233.479,84.097 L1249.848,84.097 C1253.887,84.097 1257.161,87.372 1257.161,91.411 L1257.161,217.073 C1257.161,221.112 1253.887,224.386 1249.848,224.386 L1233.479,224.386 C1229.44,224.386 1226.166,221.112 1226.166,217.073 M1249.848,70.212 L1233.479,70.212 C1229.44,70.212 1226.166,66.937 1226.166,62.898 L1226.166,47.275 C1226.166,43.236 1229.44,39.962 1233.479,39.962 L1249.848,39.962 C1253.887,39.962 1257.161,43.236 1257.161,47.275 L1257.161,62.898 C1257.161,66.937 1253.887,70.212 1249.848,70.212" id="Fill-27" fill="#FFFFFF"></path>
            <g id="Group-31" transform="translate(1277.5984, 80.4376)">
                <mask id="mask-awrv-ikxd6-6" fill="white">
                    <use xlink:href="#path-awrv-ikxd6-5"></use>
                </mask>
                <g id="Clip-30"></g>
                <path d="M28.5871029,100.867801 C30.6131029,114.168801 44.9181029,122.800801 56.3661029,112.758801 C65.9771029,102.228801 59.2581029,88.9508013 46.0131029,84.1218013 C41.6901029,81.9838013 23.8591029,75.4878013 20.3501029,72.4678013 C1.44110286,58.2098013 0.752102861,28.0498013 17.6841029,12.0908013 C40.8191029,-10.6831987 81.0061029,0.351801342 86.7421029,31.5058013 C87.5761029,36.0348013 84.1671029,40.2318013 79.5621029,40.2318013 L65.6701029,40.2318013 C62.3781029,40.2318013 59.4151029,38.0528013 58.6211029,34.8578013 C55.3851029,21.8418013 33.6981029,22.1538013 33.6151029,38.2498013 C33.9141029,53.8918013 75.6901029,59.6618013 83.4521029,75.0098013 C93.8771029,89.8848013 91.7351029,118.581801 77.0061029,131.168801 C47.8771029,157.314801 5.39310286,141.030801 0.074102861,103.272801 C-0.547897139,98.8588013 2.82310286,94.8908013 7.28110286,94.8728013 L21.3551029,94.8128013 C24.9201029,94.7978013 28.0501029,97.3438013 28.5871029,100.867801" id="Fill-29" fill="#FFFFFF" mask="url(#mask-awrv-ikxd6-6)"></path>
            </g>
        </g>
    </g>
</svg>