
<svg width="232.619389px" height="290.981px" viewBox="0 0 232.619389 290.981" version="1.1" xmlns="http://www.w3.org/2000/svg" xmlns:xlink="http://www.w3.org/1999/xlink">
    <g id="Page-1" stroke="none" stroke-width="1" fill="none" fill-rule="evenodd">
        <path d="M206.700947,101.465 C200.166947,92.3992 185.143947,73.7584 162.065947,46.0667 C152.047947,34.0554 143.454947,23.8602 139.224947,18.8549 C136.891947,16.0938 134.890947,13.7314 133.311947,11.8637 L130.793947,8.8959 L129.427947,7.28652 L129.162947,6.89524 L129.043947,6.84357 L123.219947,0 L115.836947,5.92076 C96.989947,21.0179 81.552947,40.4782 71.209947,62.1679 C64.868947,75.0725 60.726947,87.6892 58.555947,100.682 C57.987947,103.606 57.500947,106.611 57.094947,109.623 C54.562947,109.416 51.985947,109.283 49.431647,109.224 C49.217547,109.209 49.003547,109.202 48.715547,109.194 C39.361947,108.87 30.060047,109.984 21.075547,112.516 L17.229247,113.594 L15.250747,117.064 C5.978347,133.328 0.729446998,151.843 0.0723469978,170.602 C-0.776653002,194.964 5.860247,218.544 19.266847,238.794 C32.385547,258.601 50.915547,273.743 72.855947,282.579 L75.712947,283.731 L76.576947,284.034 L76.613947,284.019 C88.041947,288.168 100.038947,290.486 112.270947,290.907 C113.658947,290.959 115.039947,290.981 116.419947,290.981 C131.856947,290.981 146.887947,287.961 161.150947,281.989 L161.253947,282.033 L165.048947,280.276 C184.287947,271.38 200.750947,257.398 212.658947,239.835 C224.905947,221.77 231.786947,200.634 232.553947,178.715 C233.469947,152.515 224.765947,126.528 206.692947,101.472 L206.700947,101.465 Z M120.819947,182.643 C124.799947,197.725 124.016947,212.217 118.509947,225.779 C104.748947,212.195 94.656947,197.26 88.499947,181.343 C81.906947,164.319 77.942947,148.122 76.687947,133.143 C82.512947,135.055 87.864947,137.58 92.633947,140.688 C106.350947,149.628 115.836947,163.744 120.819947,182.65 L120.819947,182.643 Z M123.329947,255.656 C129.176947,260.107 135.326947,264.278 141.668947,268.117 C132.329947,270.657 122.695947,271.772 112.950947,271.425 C111.444947,271.373 109.938947,271.284 108.424947,271.159 C113.976947,266.375 118.966947,261.185 123.322947,255.656 L123.329947,255.656 Z M139.660947,177.674 C133.399947,153.947 121.152947,136.008 103.264947,124.358 C95.416947,119.249 86.476947,115.374 76.657947,112.841 C76.798947,111.21 76.975947,109.586 77.182947,107.991 C77.359947,106.625 77.543947,105.37 77.743947,104.196 C79.359947,95.8468 81.766947,87.5858 84.881947,79.6497 C86.077947,76.6081 87.384947,73.5886 88.772947,70.6726 L88.824947,70.5692 C90.965947,66.2357 93.379947,61.8579 96.221947,57.1774 L97.336947,55.3391 L97.299947,55.317 C103.899947,45.0036 111.805947,35.5984 120.849947,27.3078 L124.341947,31.4346 C132.484947,41.0835 140.139947,50.2083 147.101947,58.5579 C162.759947,77.3389 183.061947,102.004 190.894947,112.878 C206.382947,134.347 213.846947,156.265 213.086947,178.043 C212.495947,194.957 207.490947,211.449 198.601947,225.727 C190.185947,239.259 178.462947,250.584 164.649947,258.557 C156.942947,254.711 145.750947,248.384 133.864947,239.178 C143.447947,220.079 145.403947,199.401 139.667947,177.674 L139.660947,177.674 Z M108.439947,243.113 C99.654947,254.496 89.200947,261.901 83.102947,265.622 C82.113947,265.26 81.124947,264.884 80.149947,264.485 L79.367947,264.175 C61.302947,256.711 46.065247,244.095 35.301647,227.676 C24.301747,210.896 18.853447,191.391 19.554747,171.266 C20.056747,156.841 23.652047,143.058 30.251947,130.294 C34.083447,129.445 37.988847,128.913 41.894147,128.714 L42.905547,128.692 C44.876647,128.647 46.840447,128.647 48.708247,128.692 C51.454447,128.817 54.207947,129.105 56.917947,129.541 C57.802947,147.879 62.306947,167.664 70.316947,188.364 C78.030947,208.29 90.847947,226.694 108.432947,243.105 L108.439947,243.113 Z" id="Shape" fill="#6B7280" fill-rule="nonzero"></path>
    </g>
</svg>