
<svg width="266.6667px" height="415.7887px" viewBox="0 0 266.6667 415.7887" version="1.1" xmlns="http://www.w3.org/2000/svg" xmlns:xlink="http://www.w3.org/1999/xlink">
    <defs>
        <polygon id="path-3g1k_77ri3-1" points="0 0 117.544 0 117.544 415.7887 0 415.7887"></polygon>
        <polygon id="path-3g1k_77ri3-3" points="-2.84217094e-14 0 117.544 0 117.544 117.5436 -2.84217094e-14 117.5436"></polygon>
    </defs>
    <g id="Page-1" stroke="none" stroke-width="1" fill="none" fill-rule="evenodd">
        <g id="Group-11">
            <g id="Group-3">
                <mask id="mask-3g1k_77ri3-2" fill="white">
                    <use xlink:href="#path-3g1k_77ri3-1"></use>
                </mask>
                <g id="Clip-2"></g>
                <path d="M96.847,415.7887 L20.698,415.7887 C9.266,415.7887 0,406.5227 0,395.0917 L0,96.8467 C0,43.3587 43.36,-0.0003 96.847,-0.0003 C108.278,-0.0003 117.544,9.2657 117.544,20.6967 L117.544,395.0917 C117.544,406.5227 108.278,415.7887 96.847,415.7887" id="Fill-1" fill="#8B0000" mask="url(#mask-3g1k_77ri3-2)"></path>
            </g>
            <path d="M245.9691,266.6661 L169.8201,266.6661 C158.3891,266.6661 149.1221,257.4001 149.1221,245.9691 L149.1221,169.8191 C149.1221,158.3891 158.3891,149.1221 169.8201,149.1221 L245.9691,149.1221 C257.4011,149.1221 266.6661,158.3891 266.6661,169.8191 L266.6661,245.9691 C266.6661,257.4001 257.4011,266.6661 245.9691,266.6661" id="Fill-4" fill="#BD2734"></path>
            <path d="M169.8197,415.7887 L169.8197,415.7887 C158.3887,415.7887 149.1227,406.5227 149.1227,395.0917 L149.1227,318.9417 C149.1227,307.5117 158.3887,298.2457 169.8197,298.2457 L245.9687,298.2457 C257.4007,298.2457 266.6667,307.5117 266.6667,318.9417 C266.6667,372.4297 223.3067,415.7887 169.8197,415.7887" id="Fill-6" fill="#E2718D"></path>
            <g id="Group-10" transform="translate(149.1221, 0)">
                <mask id="mask-3g1k_77ri3-4" fill="white">
                    <use xlink:href="#path-3g1k_77ri3-3"></use>
                </mask>
                <g id="Clip-9"></g>
                <path d="M96.847,117.5436 L20.698,117.5436 C9.267,117.5436 -2.84217094e-14,108.2766 -2.84217094e-14,96.8466 L-2.84217094e-14,20.6966 C-2.84217094e-14,9.2656 9.267,-0.0004 20.698,-0.0004 L96.847,-0.0004 C108.279,-0.0004 117.544,9.2656 117.544,20.6966 L117.544,96.8466 C117.544,108.2766 108.279,117.5436 96.847,117.5436" id="Fill-8" fill="#8B0000" mask="url(#mask-3g1k_77ri3-4)"></path>
            </g>
        </g>
    </g>
</svg>